<svg width="44" height="44" viewBox="0 0 44 44" fill="none" xmlns="http://www.w3.org/2000/svg">
<circle cx="17.5909" cy="17.5909" r="17.5909" fill="#EDE1F5"/>
<path d="M43.483 15.0666H30.05V13.5165C30.05 13.2313 29.8187 13 29.5332 13H27.4666C27.1811 13 26.9498 13.2313 26.9498 13.5165V15.0666H13.5168C13.2313 15.0666 13 15.2979 13 15.5834V18.1668C13 18.452 13.2313 18.6833 13.5168 18.6833H14.0333V36.7666C14.0333 37.0518 14.2646 37.2834 14.5501 37.2834H21.3757L17.7266 43.2124C17.5769 43.4556 17.6529 43.7737 17.896 43.9234C17.9773 43.9733 18.0712 44 18.1668 44H21.7835C21.963 44 22.1295 43.9068 22.2236 43.754L26.2055 37.2834H30.7945L34.7766 43.754C34.8705 43.9068 35.0372 44 35.2167 44H38.8335C39.1187 44 39.35 43.7687 39.3502 43.4835C39.3502 43.3877 39.3237 43.294 39.2736 43.2124L35.6245 37.2834H42.4499C42.7354 37.2834 42.9667 37.0521 42.9667 36.7666V18.6833H43.4835C43.7687 18.6833 44 18.452 44 18.1665V15.5832C43.9998 15.2979 43.7685 15.0666 43.483 15.0666ZM27.9831 14.0333H29.0167V15.0666H27.9831V14.0333ZM21.4945 42.9665H19.0913L22.5888 37.2831H24.9917L21.4945 42.9665ZM37.9082 42.9665H35.5053L32.008 37.2831H34.411L37.9082 42.9665ZM41.9331 36.2498H15.0666V18.6833H41.9331V36.2498ZM42.9665 17.65H14.0333V16.0999H42.9665V17.65Z" fill="url(#paint0_linear)"/>
<path d="M17.65 34.6997H20.7499C21.0352 34.6997 21.2667 34.4684 21.2667 34.1832V22.8166C21.2667 22.5313 21.0354 22.2998 20.7499 22.2998H17.65C17.3648 22.2998 17.1332 22.5311 17.1332 22.8166V34.1832C17.1332 34.4684 17.3645 34.6997 17.65 34.6997ZM18.1665 23.3331H20.2332V33.6664H18.1665V23.3331Z" fill="url(#paint1_linear)"/>
<path d="M23.8499 34.6997H26.9498C27.2353 34.6997 27.4666 34.4684 27.4666 34.1832V25.9165C27.4666 25.6313 27.2353 25.3997 26.9498 25.3997H23.8499C23.5646 25.3997 23.3333 25.631 23.3333 25.9165V34.1832C23.3333 34.4684 23.5646 34.6997 23.8499 34.6997ZM24.3667 26.433H26.4333V33.6664H24.3667V26.433Z" fill="url(#paint2_linear)"/>
<path d="M30.0499 34.6997H33.1499C33.4351 34.6997 33.6664 34.4684 33.6664 34.1832V23.3331C33.6664 23.0479 33.4351 22.8166 33.1499 22.8166H30.0499C29.7645 22.8166 29.5332 23.0479 29.5332 23.3331V34.1832C29.5332 34.4684 29.7645 34.6997 30.0499 34.6997ZM30.5665 23.8499H32.6331V33.6664H30.5665V23.8499Z" fill="url(#paint3_linear)"/>
<path d="M36.2498 34.6997H39.3497C39.635 34.6997 39.8665 34.4684 39.8665 34.1832V20.7499C39.8665 20.4645 39.6352 20.2332 39.3497 20.2332H36.2498C35.9646 20.2332 35.733 20.4645 35.733 20.7499V34.1832C35.7333 34.4684 35.9646 34.6997 36.2498 34.6997ZM36.7666 21.2665H38.8332V33.6664H36.7666V21.2665Z" fill="url(#paint4_linear)"/>
<defs>
<linearGradient id="paint0_linear" x1="15.1095" y1="13.8179" x2="42.8486" y2="41.557" gradientUnits="userSpaceOnUse">
<stop stop-color="#662D91"/>
<stop offset="0.437" stop-color="#3873B3"/>
<stop offset="1" stop-color="#00C9DD"/>
</linearGradient>
<linearGradient id="paint1_linear" x1="9.81374" y1="19.1136" x2="37.5528" y2="46.8527" gradientUnits="userSpaceOnUse">
<stop stop-color="#662D91"/>
<stop offset="0.437" stop-color="#3873B3"/>
<stop offset="1" stop-color="#00C9DD"/>
</linearGradient>
<linearGradient id="paint2_linear" x1="12.1387" y1="16.7886" x2="39.8778" y2="44.5277" gradientUnits="userSpaceOnUse">
<stop stop-color="#662D91"/>
<stop offset="0.437" stop-color="#3873B3"/>
<stop offset="1" stop-color="#00C9DD"/>
</linearGradient>
<linearGradient id="paint3_linear" x1="15.8845" y1="13.0428" x2="43.6236" y2="40.7819" gradientUnits="userSpaceOnUse">
<stop stop-color="#662D91"/>
<stop offset="0.437" stop-color="#3873B3"/>
<stop offset="1" stop-color="#00C9DD"/>
</linearGradient>
<linearGradient id="paint4_linear" x1="19.6303" y1="9.29701" x2="47.3694" y2="37.0361" gradientUnits="userSpaceOnUse">
<stop stop-color="#662D91"/>
<stop offset="0.437" stop-color="#3873B3"/>
<stop offset="1" stop-color="#00C9DD"/>
</linearGradient>
</defs>
</svg>
