<svg width="48" height="43" viewBox="0 0 48 43" fill="none" xmlns="http://www.w3.org/2000/svg">
<circle cx="17.5909" cy="17.5909" r="17.5909" fill="#EDE1F5"/>
<g clip-path="url(#clip0)">
<path d="M47.3051 17.3979L28.4118 8.92873C28.2424 8.85268 28.0486 8.85268 27.8789 8.92873L8.98591 17.3979C8.65725 17.5449 8.51022 17.9299 8.65695 18.2586C8.72227 18.405 8.83948 18.5222 8.98591 18.5876L15.1157 21.3349V32.9771C15.1157 33.1691 15.2007 33.3517 15.3477 33.4754C22.7369 39.7203 33.5541 39.7203 40.9433 33.4754C41.0903 33.3517 41.1753 33.1691 41.1753 32.9771V21.3349L43.7814 20.1667V31.4787L42.804 32.9407C42.5905 33.2616 42.4771 33.6389 42.4783 34.0245V34.7796C42.4783 35.859 43.3534 36.734 44.4327 36.734C45.512 36.734 46.3871 35.859 46.3871 34.7796V34.0227C46.3883 33.6371 46.2749 33.2598 46.0614 32.9386L45.0841 31.4787V19.5831L47.3051 18.5876C47.6334 18.4408 47.7808 18.0555 47.634 17.7271C47.5687 17.5807 47.4515 17.4635 47.3051 17.3979ZM45.0841 34.7778C45.0841 35.1375 44.7924 35.4292 44.4327 35.4292C44.0727 35.4292 43.7811 35.1375 43.7811 34.7778V34.0227C43.7811 33.8942 43.8192 33.7686 43.8905 33.6618L44.4327 32.8467L44.9746 33.6597C45.0462 33.7665 45.0844 33.8924 45.0841 34.0209V34.7778ZM39.8723 32.6708C33.0498 38.2497 23.2412 38.2497 16.4187 32.6708V21.9213L27.8789 27.0588C28.0486 27.1348 28.2424 27.1348 28.4118 27.0588L39.8723 21.9192V32.6708ZM44.0626 18.6129L28.1977 17.3412C27.8377 17.3126 27.5228 17.5807 27.4941 17.9407C27.4652 18.3003 27.7336 18.6156 28.0933 18.6442L41.589 19.7238L28.1455 25.7456L10.8451 17.9929L28.1455 10.2401L45.4458 17.9929L44.0626 18.6129Z" fill="url(#paint0_linear)"/>
</g>
<defs>
<linearGradient id="paint0_linear" x1="20.4906" y1="14.5723" x2="45.6967" y2="39.7784" gradientUnits="userSpaceOnUse">
<stop stop-color="#662D91"/>
<stop offset="0.437" stop-color="#3873B3"/>
<stop offset="1" stop-color="#00C9DD"/>
</linearGradient>
<clipPath id="clip0">
<rect width="39.0909" height="39.0909" fill="white" transform="translate(8.59998 3.90909)"/>
</clipPath>
</defs>
</svg>
