<svg width="42" height="39" viewBox="0 0 42 39" fill="none" xmlns="http://www.w3.org/2000/svg">
<circle cx="17.5909" cy="17.5909" r="17.5909" fill="#EDE1F5"/>
<path d="M20 37C20 35.164 18.893 33.5835 17.313 32.8845C18.0325 32.336 18.5 31.4725 18.5 30.5C18.5 29.0165 17.4165 27.7845 16 27.545V27C16 26.173 16.673 25.5 17.5 25.5H26V27.545C24.5835 27.784 23.5 29.016 23.5 30.5C23.5 31.4725 23.9675 32.336 24.687 32.8845C23.107 33.5835 22 35.164 22 37V39H31V37C31 35.164 29.893 33.5835 28.313 32.8845C29.0325 32.336 29.5 31.4725 29.5 30.5C29.5 29.0165 28.4165 27.7845 27 27.545V25.5H35.5C36.327 25.5 37 26.173 37 27V27.545C35.5835 27.784 34.5 29.016 34.5 30.5C34.5 31.4725 34.9675 32.336 35.687 32.8845C34.107 33.5835 33 35.164 33 37V39H42V37C42 35.164 40.893 33.5835 39.313 32.8845C40.0325 32.336 40.5 31.4725 40.5 30.5C40.5 29.0165 39.4165 27.7845 38 27.545V27C38 25.6215 36.8785 24.5 35.5 24.5H27V22.678C27.27 22.8835 27.5945 23 27.9395 23C28.7815 23 29.465 22.329 29.4945 21.4945C30.3105 21.4655 30.9655 20.8105 30.9945 19.9945C31.8105 19.9655 32.4655 19.3105 32.4945 18.4945C33.329 18.465 34 17.781 34 16.9395C34 16.5225 33.8375 16.1305 33.543 15.836L33.439 15.732C34.126 14.889 34.5 13.845 34.5 12.7425C34.5 10.1275 32.3725 8 29.7575 8C28.534 8 27.3845 8.464 26.5 9.302C25.6155 8.464 24.466 8 23.2425 8C20.6275 8 18.5 10.1275 18.5 12.7425C18.5 13.971 18.9675 15.1255 19.8125 16.0115C19.613 16.2795 19.5 16.5995 19.5 16.9395C19.5 17.7815 20.171 18.465 21.0055 18.4945C21.0345 19.3105 21.6895 19.9655 22.5055 19.9945C22.5345 20.8105 23.1895 21.4655 24.0055 21.4945C24.035 22.329 24.719 23 25.5605 23C25.7125 23 25.8585 22.9715 26 22.93V24.5H17.5C16.1215 24.5 15 25.6215 15 27V27.545C13.5835 27.7845 12.5 29.0165 12.5 30.5C12.5 31.4725 12.9675 32.336 13.687 32.8845C12.107 33.5835 11 35.164 11 37V39H20V37ZM30 37V38H29V36H28V38H25V36H24V38H23V37C23 35.07 24.57 33.5 26.5 33.5C28.43 33.5 30 35.07 30 37ZM28.5 30.5C28.5 31.603 27.603 32.5 26.5 32.5C25.397 32.5 24.5 31.603 24.5 30.5C24.5 29.397 25.397 28.5 26.5 28.5C27.603 28.5 28.5 29.397 28.5 30.5ZM41 37V38H40V36H39V38H36V36H35V38H34V37C34 35.07 35.57 33.5 37.5 33.5C39.43 33.5 41 35.07 41 37ZM39.5 30.5C39.5 31.603 38.603 32.5 37.5 32.5C36.397 32.5 35.5 31.603 35.5 30.5C35.5 29.397 36.397 28.5 37.5 28.5C38.603 28.5 39.5 29.397 39.5 30.5ZM29.7575 9C31.821 9 33.5 10.679 33.5 12.7425C33.5 13.577 33.2255 14.3675 32.725 15.0175L30.426 12.7185C30.575 12.6065 30.7195 12.4875 30.854 12.3535L30.147 11.6465C29.596 12.197 28.8645 12.5 28.0855 12.5H27.293L26.4395 13.3535C26.345 13.448 26.219 13.5 26.0855 13.5H24.207C24.093 13.5 24 13.407 24 13.293C24 13.2385 24.022 13.185 24.0605 13.1465L27.111 10.096C27.818 9.3895 28.7575 9 29.7575 9ZM23.2425 9C24.1965 9 25.0935 9.358 25.788 10.0045L23.353 12.4395C23.1255 12.667 23 12.9705 23 13.293C23 13.9585 23.5415 14.5 24.207 14.5H26.0855C26.486 14.5 26.863 14.344 27.1465 14.0605L27.707 13.5H28.0855C28.585 13.5 29.069 13.4045 29.52 13.227L32.836 16.543C32.9415 16.649 33 16.7895 33 16.9395C33 17.2485 32.7485 17.5 32.4395 17.5C32.2895 17.5 32.149 17.4415 32.043 17.336L30.8535 16.1465L30.1465 16.8535L31.336 18.043C31.4415 18.149 31.5 18.2895 31.5 18.4395C31.5 18.7485 31.2485 19 30.9395 19C30.7895 19 30.649 18.9415 30.543 18.836L29.3535 17.6465L28.6465 18.3535L29.836 19.543C29.9415 19.649 30 19.7895 30 19.9395C30 20.2485 29.7485 20.5 29.4395 20.5C29.2895 20.5 29.149 20.4415 29.043 20.336L27.8535 19.1465L27.1465 19.8535L28.336 21.043C28.4415 21.149 28.5 21.2895 28.5 21.4395C28.5 21.7485 28.2485 22 27.9395 22C27.7895 22 27.649 21.9415 27.543 21.836L27.376 21.669C27.4565 21.479 27.5 21.2735 27.5 21.0605C27.5 20.2185 26.829 19.535 25.9945 19.5055C25.9655 18.6895 25.3105 18.0345 24.4945 18.0055C24.4655 17.1895 23.8105 16.5345 22.9945 16.5055C22.965 15.671 22.281 15 21.4395 15C21.103 15 20.786 15.11 20.5205 15.3055C19.8635 14.6085 19.5 13.7045 19.5 12.7425C19.5 10.679 21.179 9 23.2425 9ZM20.5 16.9395C20.5 16.7895 20.5585 16.649 20.664 16.543L21.043 16.164C21.149 16.0585 21.2895 16 21.4395 16C21.7485 16 22 16.2515 22 16.5605C22 16.7105 21.9415 16.851 21.836 16.957L21.457 17.336C21.351 17.4415 21.2105 17.5 21.0605 17.5C20.7515 17.5 20.5 17.2485 20.5 16.9395ZM22 18.4395C22 18.2895 22.0585 18.149 22.164 18.043L22.543 17.664C22.649 17.5585 22.7895 17.5 22.9395 17.5C23.2485 17.5 23.5 17.7515 23.5 18.0605C23.5 18.2105 23.4415 18.351 23.336 18.457L22.957 18.836C22.851 18.9415 22.7105 19 22.5605 19C22.2515 19 22 18.7485 22 18.4395ZM23.5 19.9395C23.5 19.7895 23.5585 19.649 23.664 19.543L24.043 19.164C24.149 19.0585 24.2895 19 24.4395 19C24.7485 19 25 19.2515 25 19.5605C25 19.7105 24.9415 19.851 24.836 19.957L24.457 20.336C24.351 20.4415 24.2105 20.5 24.0605 20.5C23.7515 20.5 23.5 20.2485 23.5 19.9395ZM25.5605 22C25.2515 22 25 21.7485 25 21.4395C25 21.2895 25.0585 21.149 25.164 21.043L25.543 20.664C25.649 20.5585 25.7895 20.5 25.9395 20.5C26.2485 20.5 26.5 20.7515 26.5 21.0605C26.5 21.2105 26.4415 21.351 26.336 21.457L25.957 21.836C25.851 21.9415 25.7105 22 25.5605 22ZM13.5 30.5C13.5 29.397 14.397 28.5 15.5 28.5C16.603 28.5 17.5 29.397 17.5 30.5C17.5 31.603 16.603 32.5 15.5 32.5C14.397 32.5 13.5 31.603 13.5 30.5ZM19 38H18V36H17V38H14V36H13V38H12V37C12 35.07 13.57 33.5 15.5 33.5C17.43 33.5 19 35.07 19 37V38ZM29.5 27.5V26.5H30.5V27.5H29.5ZM32.5 26.5V27.5H31.5V26.5H32.5ZM34.5 27.5H33.5V26.5H34.5V27.5ZM18.5 27.5V26.5H19.5V27.5H18.5ZM20.5 27.5V26.5H21.5V27.5H20.5ZM23.5 27.5H22.5V26.5H23.5V27.5Z" fill="url(#paint0_linear)"/>
<defs>
<linearGradient id="paint0_linear" x1="26.5" y1="39" x2="26.5" y2="8" gradientUnits="userSpaceOnUse">
<stop stop-color="#9F2FFF"/>
<stop offset="1" stop-color="#0BB1D3"/>
</linearGradient>
</defs>
</svg>
