<svg width="41" height="41" viewBox="0 0 41 41" fill="none" xmlns="http://www.w3.org/2000/svg">
<circle cx="17.5909" cy="17.5909" r="17.5909" fill="#EDE1F5"/>
<path d="M26.1595 24.3332H31.4463V25.3906H26.1595V24.3332Z" fill="url(#paint0_linear)"/>
<path d="M26.1595 26.4477H29.3317V27.5051H26.1595V26.4477Z" fill="url(#paint1_linear)"/>
<path d="M40.522 35.0653L37.7906 32.331V17.5201C37.7906 17.5085 37.7848 17.4985 37.7836 17.4867C37.7811 17.4407 37.7719 17.3952 37.7567 17.3514C37.7511 17.3347 37.7448 17.318 37.7376 17.3018C37.7119 17.2444 37.6761 17.1919 37.6318 17.1469L29.6451 9.15659C29.5994 9.11157 29.5457 9.07575 29.4866 9.05082C29.4716 9.04453 29.4566 9.03897 29.4411 9.03437C29.3949 9.01791 29.3467 9.00847 29.2978 9.00581C29.2879 9.00581 29.2787 9 29.2688 9H18.7581C18.4662 9 18.2295 9.2367 18.2295 9.52881V13.2295H16.6436C16.3515 13.2295 16.1148 13.4662 16.1148 13.7581V15.8729H14.5288C14.2369 15.8729 14 16.1096 14 16.4015V40.1935C14 40.4854 14.2367 40.7223 14.5288 40.7223H32.5036C32.7958 40.7223 33.0325 40.4856 33.0325 40.1935V38.0787H34.6184C34.9105 38.0787 35.1472 37.842 35.1472 37.5501V35.4354H36.6424L38.3954 37.1886C38.961 37.7965 39.9124 37.8311 40.5203 37.2655C41.1285 36.7002 41.1629 35.7488 40.5975 35.1408C40.5731 35.1145 40.5482 35.0895 40.522 35.0653ZM29.8 10.8064L32.8928 13.8992L35.9856 16.9915H29.8V10.8064ZM31.9751 39.6647H15.0574V16.9317H16.1148V37.5499C16.1148 37.842 16.3515 38.0787 16.6436 38.0787H31.9751V39.6647ZM34.0898 37.0213H17.1722V14.2884H18.2295V34.9068C18.2295 35.1987 18.4662 35.4354 18.7581 35.4354H34.0898V37.0213ZM19.2869 34.378V10.0588H28.7427V17.5201C28.7427 17.812 28.9793 18.0489 29.2715 18.0489H36.7332V31.2736L34.6809 29.2213C36.5451 25.9354 35.3929 21.7605 32.107 19.896C28.8211 18.0317 24.646 19.1842 22.7817 22.4701C20.9174 25.756 22.0699 29.9309 25.3556 31.7954C27.6521 33.0982 30.4932 32.9631 32.6556 31.4486L35.585 34.378H19.2869ZM28.7502 31.6289C25.5676 31.6289 22.9877 29.0489 22.9877 25.8661C22.9877 22.6836 25.5676 20.1036 28.7502 20.1036C31.9327 20.1036 34.5127 22.6836 34.5127 25.8661C34.5088 29.0473 31.931 31.625 28.7502 31.6289ZM39.4591 36.5719C39.34 36.5729 39.2255 36.5257 39.1418 36.441L33.5419 30.8401L34.1733 30.2089L36.7332 32.7688V32.792H36.7564L39.7747 35.8103C39.9489 35.9845 39.9489 36.267 39.7747 36.4412C39.6907 36.5254 39.5764 36.5726 39.4574 36.5721H39.4591V36.5719Z" fill="url(#paint2_linear)"/>
<path d="M28.7502 20.844C25.9764 20.844 23.7278 23.0924 23.7278 25.8662C23.7278 28.6402 25.9764 30.8886 28.7502 30.8886C31.524 30.8886 33.7726 28.6402 33.7726 25.8662C33.7695 23.0938 31.5226 20.8471 28.7502 20.844ZM28.7502 29.8314C26.5604 29.8314 24.7852 28.0562 24.7852 25.8664C24.7852 23.6766 26.5604 21.9014 28.7502 21.9014C30.94 21.9014 32.7152 23.6766 32.7152 25.8664C32.7128 28.0552 30.939 29.829 28.7502 29.8314Z" fill="url(#paint3_linear)"/>
<defs>
<linearGradient id="paint0_linear" x1="14.4404" y1="10.4993" x2="42.3736" y2="38.4324" gradientUnits="userSpaceOnUse">
<stop stop-color="#662D91"/>
<stop offset="0.437" stop-color="#3873B3"/>
<stop offset="1" stop-color="#00C9DD"/>
</linearGradient>
<linearGradient id="paint1_linear" x1="12.8544" y1="12.0853" x2="40.7876" y2="40.0185" gradientUnits="userSpaceOnUse">
<stop stop-color="#662D91"/>
<stop offset="0.437" stop-color="#3873B3"/>
<stop offset="1" stop-color="#00C9DD"/>
</linearGradient>
<linearGradient id="paint2_linear" x1="10.9892" y1="13.9512" x2="38.9222" y2="41.8837" gradientUnits="userSpaceOnUse">
<stop stop-color="#662D91"/>
<stop offset="0.437" stop-color="#3873B3"/>
<stop offset="1" stop-color="#00C9DD"/>
</linearGradient>
<linearGradient id="paint3_linear" x1="13.9111" y1="11.0292" x2="41.8443" y2="38.9619" gradientUnits="userSpaceOnUse">
<stop stop-color="#662D91"/>
<stop offset="0.437" stop-color="#3873B3"/>
<stop offset="1" stop-color="#00C9DD"/>
</linearGradient>
</defs>
</svg>
