<svg width="49" height="44" viewBox="0 0 49 44" fill="none" xmlns="http://www.w3.org/2000/svg">
<circle cx="17.5908" cy="17.5909" r="17.5909" fill="#EDE1F5"/>
<path d="M42.763 23.3471C43.0489 23.3473 43.2812 23.1159 43.2815 22.83C43.2815 22.8297 43.2815 22.8291 43.2815 22.8288V21.014C43.2817 20.7281 43.0503 20.496 42.7643 20.4957C42.7638 20.4957 42.7635 20.4957 42.763 20.4957H12.5185C12.2323 20.4955 12.0003 20.727 12 21.0129V21.014V35.5317C11.9997 35.8176 12.2312 36.0496 12.5171 36.0499H12.5185H33.0847C33.3709 36.0499 33.6032 35.8178 33.6032 35.5317C33.6032 35.2452 33.3709 35.0132 33.0847 35.0132H13.0367V21.5325H42.2447V22.8288C42.2445 23.1148 42.476 23.3468 42.7619 23.3471H42.763Z" fill="url(#paint0_linear)"/>
<path d="M14.6604 12.7125C14.5442 12.7865 14.4618 12.9036 14.4317 13.0379L13.2218 18.482C13.1599 18.7615 13.3362 19.0386 13.6157 19.1007C13.8953 19.1629 14.1723 18.9866 14.2345 18.7071L15.3312 13.7704L39.0199 19.1002C39.0575 19.109 39.0959 19.1132 39.1343 19.1129C39.4205 19.1123 39.6523 18.88 39.6517 18.5936C39.6511 18.3516 39.4835 18.1422 39.2473 18.0889L15.0516 12.6448C14.9173 12.6147 14.7767 12.6393 14.6604 12.7125Z" fill="url(#paint1_linear)"/>
<path d="M20.8471 12.173L21.8399 10.1865L35.9089 16.0486C36.1739 16.1591 36.4783 16.0339 36.5888 15.769C36.6993 15.5041 36.5744 15.1997 36.3092 15.0892L21.7921 9.04015C21.5396 8.9349 21.249 9.04319 21.1266 9.28766L19.9167 11.7072C19.7802 11.96 19.8742 12.2754 20.1269 12.4122C20.3797 12.5489 20.6954 12.4547 20.8319 12.202C20.8374 12.192 20.8424 12.1821 20.8471 12.1719V12.173Z" fill="url(#paint2_linear)"/>
<path d="M37.1943 23.4338C37.1943 23.1473 36.9622 22.9153 36.6761 22.9153H31.875C31.5886 22.9153 31.3565 23.1473 31.3565 23.4338C31.3565 23.72 31.5886 23.952 31.875 23.952H36.6761C36.9622 23.952 37.1943 23.72 37.1943 23.4338Z" fill="url(#paint3_linear)"/>
<path d="M27.0359 33.5958C29.9756 33.5958 32.3587 31.2127 32.3587 28.2729C32.3587 25.3329 29.9756 22.9498 27.0359 22.9498C24.0959 22.9498 21.7128 25.3329 21.7128 28.2729C21.7158 31.2113 24.0973 33.5927 27.0359 33.5958ZM27.0359 23.9175C29.4411 23.9175 31.3911 25.8675 31.3911 28.2727C31.3911 30.6781 29.4411 32.6281 27.0359 32.6281C24.6304 32.6281 22.6805 30.6781 22.6805 28.2727C22.6832 25.8686 24.6315 23.9203 27.0359 23.9175Z" fill="url(#paint4_linear)"/>
<path d="M41.5533 24.6435C38.3473 24.6435 34.8993 25.4006 34.8993 27.063V41.5804C34.8993 43.2428 38.3473 44 41.5533 44C44.7591 44 48.2071 43.2428 48.2071 41.5804V27.063C48.2071 25.4006 44.7591 24.6435 41.5533 24.6435ZM46.9971 39.1517C46.906 39.4874 45.0919 40.3705 41.5533 40.3705C38.0144 40.3705 36.2007 39.4874 36.1092 39.1609V38.2101C37.3965 38.8584 39.5227 39.1609 41.5533 39.1609C43.5839 39.1609 45.7107 38.8553 46.9971 38.2092V39.1517ZM46.9971 36.7322C46.906 37.0681 45.0919 37.9512 41.5533 37.9512C38.0144 37.9512 36.2007 37.0681 36.1092 36.7413V35.7905C37.3965 36.4388 39.5227 36.7413 41.5533 36.7413C43.5839 36.7413 45.7107 36.4358 46.9971 35.7899V36.7322ZM46.9971 34.3126C46.906 34.6485 45.0919 35.5316 41.5533 35.5316C38.0144 35.5316 36.2007 34.6485 36.1092 34.3217V33.3709C37.3965 34.0192 39.5227 34.3217 41.5533 34.3217C43.5839 34.3217 45.7107 34.0162 46.9971 33.3704V34.3126ZM46.9971 31.893C46.906 32.2287 45.0919 33.1118 41.5533 33.1118C38.0144 33.1118 36.2007 32.2287 36.1092 31.9022V30.9513C37.3965 31.5966 39.5227 31.9022 41.5533 31.9022C43.5839 31.9022 45.7107 31.5966 46.9971 30.9508V31.893ZM46.9971 29.4735C46.906 29.8091 45.0919 30.6922 41.5533 30.6922C38.0144 30.6922 36.2007 29.8091 36.1092 29.4826V28.5318C37.3965 29.1771 39.5227 29.4826 41.5533 29.4826C43.5839 29.4826 45.7107 29.1771 46.9971 28.5312V29.4735ZM41.5533 25.8531C45.0615 25.8531 46.8764 26.7205 46.9971 27.063C46.8764 27.4053 45.0615 28.2727 41.5533 28.2727C38.02 28.2727 36.2065 27.392 36.1092 27.0738V27.0702C36.2065 26.7335 38.02 25.8531 41.5533 25.8531ZM41.5533 42.7901C38.0144 42.7901 36.2007 41.9069 36.1092 41.5804V40.6296C37.3965 41.278 39.5227 41.5804 41.5533 41.5804C43.5839 41.5804 45.7107 41.2749 46.9971 40.6288V41.5713C46.906 41.9069 45.0919 42.7901 41.5533 42.7901Z" fill="url(#paint5_linear)"/>
<path d="M17.8504 23.952H22.1965C22.483 23.952 22.715 23.72 22.715 23.4338C22.715 23.1473 22.483 22.9153 22.1965 22.9153H17.64C17.5046 22.915 17.3742 22.9678 17.277 23.0623L14.5751 25.6978C14.4743 25.8158 14.4187 25.9661 14.419 26.1213V30.4232C14.419 30.5525 14.4674 30.6773 14.5544 30.7729L17.0121 33.461C17.1104 33.5684 17.2494 33.6297 17.3949 33.6297H22.1968C22.483 33.6297 22.715 33.3977 22.715 33.1112C22.715 32.8251 22.483 32.593 22.1968 32.593H17.6242L15.4563 30.2218V26.2901L17.8504 23.952Z" fill="url(#paint6_linear)"/>
<path d="M26.145 30L25.375 28.64H25.045V30H24.345V26.51H25.655C25.925 26.51 26.155 26.5583 26.345 26.655C26.535 26.7483 26.6767 26.8767 26.77 27.04C26.8667 27.2 26.915 27.38 26.915 27.58C26.915 27.81 26.8483 28.0183 26.715 28.205C26.5817 28.3883 26.3833 28.515 26.12 28.585L26.955 30H26.145ZM25.045 28.115H25.63C25.82 28.115 25.9617 28.07 26.055 27.98C26.1483 27.8867 26.195 27.7583 26.195 27.595C26.195 27.435 26.1483 27.3117 26.055 27.225C25.9617 27.135 25.82 27.09 25.63 27.09H25.045V28.115Z" fill="url(#paint7_linear)"/>
<path d="M28.2481 27.63C28.3381 27.5033 28.4615 27.3983 28.6181 27.315C28.7781 27.2283 28.9598 27.185 29.1631 27.185C29.3998 27.185 29.6131 27.2433 29.8031 27.36C29.9965 27.4767 30.1481 27.6433 30.2581 27.86C30.3715 28.0733 30.4281 28.3217 30.4281 28.605C30.4281 28.8883 30.3715 29.14 30.2581 29.36C30.1481 29.5767 29.9965 29.745 29.8031 29.865C29.6131 29.985 29.3998 30.045 29.1631 30.045C28.9598 30.045 28.7798 30.0033 28.6231 29.92C28.4698 29.8367 28.3448 29.7317 28.2481 29.605V31.32H27.5481V27.23H28.2481V27.63ZM29.7131 28.605C29.7131 28.4383 29.6781 28.295 29.6081 28.175C29.5415 28.0517 29.4515 27.9583 29.3381 27.895C29.2281 27.8317 29.1081 27.8 28.9781 27.8C28.8515 27.8 28.7315 27.8333 28.6181 27.9C28.5081 27.9633 28.4181 28.0567 28.3481 28.18C28.2815 28.3033 28.2481 28.4483 28.2481 28.615C28.2481 28.7817 28.2815 28.9267 28.3481 29.05C28.4181 29.1733 28.5081 29.2683 28.6181 29.335C28.7315 29.3983 28.8515 29.43 28.9781 29.43C29.1081 29.43 29.2281 29.3967 29.3381 29.33C29.4515 29.2633 29.5415 29.1683 29.6081 29.045C29.6781 28.9217 29.7131 28.775 29.7131 28.605Z" fill="url(#paint8_linear)"/>
<defs>
<linearGradient id="paint0_linear" x1="11.9891" y1="12.6212" x2="44.4265" y2="45.0586" gradientUnits="userSpaceOnUse">
<stop stop-color="#662D91"/>
<stop offset="0.437" stop-color="#3873B3"/>
<stop offset="1" stop-color="#00C9DD"/>
</linearGradient>
<linearGradient id="paint1_linear" x1="16.2232" y1="8.38716" x2="48.6605" y2="40.8245" gradientUnits="userSpaceOnUse">
<stop stop-color="#662D91"/>
<stop offset="0.437" stop-color="#3873B3"/>
<stop offset="1" stop-color="#00C9DD"/>
</linearGradient>
<linearGradient id="paint2_linear" x1="19.545" y1="5.06529" x2="51.9824" y2="37.5026" gradientUnits="userSpaceOnUse">
<stop stop-color="#662D91"/>
<stop offset="0.437" stop-color="#3873B3"/>
<stop offset="1" stop-color="#00C9DD"/>
</linearGradient>
<linearGradient id="paint3_linear" x1="17.7261" y1="6.88427" x2="50.1634" y2="39.3216" gradientUnits="userSpaceOnUse">
<stop stop-color="#662D91"/>
<stop offset="0.437" stop-color="#3873B3"/>
<stop offset="1" stop-color="#00C9DD"/>
</linearGradient>
<linearGradient id="paint4_linear" x1="11.6875" y1="12.9229" x2="44.1248" y2="45.3602" gradientUnits="userSpaceOnUse">
<stop stop-color="#662D91"/>
<stop offset="0.437" stop-color="#3873B3"/>
<stop offset="1" stop-color="#00C9DD"/>
</linearGradient>
<linearGradient id="paint5_linear" x1="15.9209" y1="8.68941" x2="48.3583" y2="41.1268" gradientUnits="userSpaceOnUse">
<stop stop-color="#662D91"/>
<stop offset="0.437" stop-color="#3873B3"/>
<stop offset="1" stop-color="#00C9DD"/>
</linearGradient>
<linearGradient id="paint6_linear" x1="8.0668" y1="16.5435" x2="40.5041" y2="48.9809" gradientUnits="userSpaceOnUse">
<stop stop-color="#662D91"/>
<stop offset="0.437" stop-color="#3873B3"/>
<stop offset="1" stop-color="#00C9DD"/>
</linearGradient>
<linearGradient id="paint7_linear" x1="27.5" y1="24" x2="27.5" y2="32" gradientUnits="userSpaceOnUse">
<stop stop-color="#662D91"/>
<stop offset="1" stop-color="#2B88BD"/>
</linearGradient>
<linearGradient id="paint8_linear" x1="27.5" y1="24" x2="27.5" y2="32" gradientUnits="userSpaceOnUse">
<stop stop-color="#662D91"/>
<stop offset="1" stop-color="#2B88BD"/>
</linearGradient>
</defs>
</svg>
