<svg width="49" height="37" viewBox="0 0 49 37" fill="none" xmlns="http://www.w3.org/2000/svg">
<circle cx="17.5909" cy="17.5909" r="17.5909" fill="#EDE1F5"/>
<path d="M9.65463 29.2936C10.0164 29.2936 10.3096 29.0005 10.3096 28.639V25.3652C10.3129 22.4736 12.6559 20.1303 15.5475 20.1273H16.2873C16.6487 20.127 16.9419 19.8338 16.9419 19.4723C16.9419 19.2344 16.8124 19.0149 16.6041 18.8995C14.3887 17.6751 13.5854 14.8866 14.8098 12.6713C16.034 10.4559 18.8228 9.65258 21.0381 10.8767C23.2535 12.1012 24.0568 14.8896 22.8324 17.1053C22.4151 17.8603 21.7932 18.4823 21.0381 18.8995C20.7216 19.0746 20.6071 19.4729 20.7822 19.7895C20.8976 19.9978 21.1167 20.1273 21.355 20.1273H21.4401C24.3317 20.1306 26.6747 22.4736 26.678 25.3652V28.639C26.678 29.0005 26.9712 29.2936 27.3327 29.2936C27.6944 29.2936 27.9876 29.0005 27.9876 28.639V25.3652C27.9834 22.3642 25.9434 19.7487 23.0338 19.014C24.3392 17.6856 24.938 15.817 24.6482 13.9772C24.1422 10.7622 21.1257 8.56633 17.9109 9.07259C14.6959 9.57855 12.5001 12.5951 13.0063 15.8098C13.1883 16.9662 13.7104 18.042 14.5062 18.9001C11.3353 19.4157 9.0042 22.1523 9 25.3652V28.639C9 29.0005 9.29315 29.2936 9.65463 29.2936Z" fill="url(#paint0_linear)"/>
<path d="M43.3309 19.014C44.6363 17.6853 45.2352 15.817 44.9456 13.9772C44.4394 10.7622 41.4228 8.56633 38.2081 9.07259C34.9934 9.57855 32.7975 12.5951 33.3035 15.8098C33.4854 16.9659 34.0079 18.042 34.8034 18.9001C31.6324 19.4154 29.3013 22.1523 29.2971 25.3649V28.6387C29.2971 29.0005 29.5903 29.2936 29.9518 29.2936C30.3133 29.2936 30.6064 29.0005 30.6064 28.6387V25.3649C30.6097 22.4736 32.9531 20.1303 35.8444 20.127H36.5844C36.9462 20.127 37.2393 19.8338 37.239 19.4723C37.239 19.234 37.1099 19.0146 36.9012 18.8995C34.6859 17.6751 33.8826 14.8866 35.107 12.6713C36.3314 10.4559 39.1199 9.65228 41.3353 10.8767C43.5507 12.1012 44.354 14.8896 43.1298 17.105C42.7123 17.8603 42.0903 18.4823 41.3353 18.8995C41.0191 19.0746 40.9043 19.4729 41.0793 19.7895C41.1947 19.9978 41.4141 20.127 41.6521 20.127H41.7372C44.6288 20.1303 46.9722 22.4736 46.9752 25.3649V28.6387C46.9752 29.0005 47.2683 29.2936 47.6301 29.2936C47.9916 29.2936 48.2847 29.0005 48.2847 28.6387V25.3649C48.2805 22.3642 46.2405 19.7487 43.3309 19.014Z" fill="url(#paint1_linear)"/>
<circle cx="28.8345" cy="22.8093" r="4.95863" fill="white"/>
<path d="M26.7366 27.0051L30.7417 27.3865V32.7266H26.5459V27.768C26.7366 27.5772 26.673 27.4557 26.7366 27.0051Z" fill="white"/>
<path d="M19.5719 37C19.9337 37 20.2268 36.7069 20.2268 36.3454V33.0716C20.2301 30.18 22.5732 27.8367 25.4648 27.8337H26.2045C26.566 27.8334 26.8592 27.5402 26.8592 27.1787C26.8592 26.9407 26.7297 26.7213 26.5213 26.6059C24.306 25.3815 23.5027 22.593 24.7271 20.3777C25.9512 18.1623 28.74 17.359 30.9554 18.5831C33.1708 19.8076 33.9741 22.596 32.7496 24.8117C32.3324 25.5667 31.7104 26.1887 30.9554 26.6059C30.6389 26.781 30.5244 27.1793 30.6994 27.4959C30.8148 27.7042 31.0339 27.8337 31.2722 27.8337H31.3573C34.2489 27.837 36.592 30.18 36.5953 33.0716V36.3454C36.5953 36.7069 36.8884 37 37.2499 37C37.6117 37 37.9048 36.7069 37.9048 36.3454V33.0716C37.9006 30.0706 35.8606 27.4551 32.9511 26.7204C34.2564 25.392 34.8553 23.5234 34.5654 21.6836C34.0595 18.4686 31.0429 16.2727 27.8282 16.779C24.6132 17.2849 22.4173 20.3015 22.9236 23.5162C23.1055 24.6726 23.6277 25.7484 24.4235 26.6065C21.2525 27.1221 18.9215 29.8587 18.9173 33.0716V36.3454C18.9173 36.7069 19.2104 37 19.5719 37Z" fill="url(#paint2_linear)"/>
<defs>
<linearGradient id="paint0_linear" x1="0.322242" y1="4.14326" x2="33.9349" y2="37.7559" gradientUnits="userSpaceOnUse">
<stop stop-color="#662D91"/>
<stop offset="0.437" stop-color="#3873B3"/>
<stop offset="1" stop-color="#00C9DD"/>
</linearGradient>
<linearGradient id="paint1_linear" x1="10.4708" y1="-6.0053" x2="44.0835" y2="27.6074" gradientUnits="userSpaceOnUse">
<stop stop-color="#662D91"/>
<stop offset="0.437" stop-color="#3873B3"/>
<stop offset="1" stop-color="#00C9DD"/>
</linearGradient>
<linearGradient id="paint2_linear" x1="10.2395" y1="11.8497" x2="43.8522" y2="45.4623" gradientUnits="userSpaceOnUse">
<stop stop-color="#662D91"/>
<stop offset="0.437" stop-color="#3873B3"/>
<stop offset="1" stop-color="#00C9DD"/>
</linearGradient>
</defs>
</svg>
